# xmcd
#
# Track frame offsets: 
#        182
#        10935
#        25727
#        43440
#        56447
#        71567
#        90332
#        108165
#        117130
#        134125
#        147855
#        161735
#        175035
#        193925
#        206662
#
# Disc length: 2919 seconds
#
# Revision: 0
# Processed by: cddbd v1.5.2PL0 Copyright (c) Steve Scherf et al.
# Submitted via: ExactAudioCopyFreeDBPlugin 1.0
#
DISCID=d40b650f
DTITLE=Křížková Hana - Blues, Jazz, Swing
DYEAR=1994
DGENRE=Blues
TTITLE0=StopValčík na rozkoučenoua01
TTITLE1=Černá Jessie
TTITLE2=P.S.T. Love You
TTITLE3=Aleluja a jazz
TTITLE4=Strom i růže
TTITLE5=Svůj háj mám na zemi
TTITLE6=Dva cizinci na pobřeží
TTITLE7=Holky z nebe
TTITLE8=Dvojníci hvězd
TTITLE9=Cirkus v hlavě
TTITLE10=Pár klobouků, král životů
TTITLE11=Aneta
TTITLE12=Ztracená nit
TTITLE13=Tak ty ses bál
TTITLE14=Sonny boy
EXTD=
EXTT0=
EXTT1=
EXTT2=
EXTT3=
EXTT4=
EXTT5=
EXTT6=
EXTT7=
EXTT8=
EXTT9=
EXTT10=
EXTT11=
EXTT12=
EXTT13=
EXTT14=
PLAYORDER=
